<svg width="18" height="17" viewBox="0 0 18 17" fill="none" xmlns="http://www.w3.org/2000/svg">
<path d="M1.29152 1.66068C2.00474 0.878742 3.21681 0.823032 3.99875 1.53625L16.539 12.9744C17.3209 13.6876 17.3766 14.8997 16.6634 15.6816C15.9502 16.4635 14.7381 16.5193 13.9562 15.806L1.41595 4.36792C0.63401 3.6547 0.578298 2.44263 1.29152 1.66068Z" fill="#FFEE00"/>
<path d="M1.72621 15.8564C0.989618 15.0965 1.00856 13.8833 1.76853 13.1467L13.9563 1.33368C14.7163 0.59709 15.9295 0.616032 16.666 1.376C17.4026 2.13596 17.3837 3.34916 16.6237 4.08576L4.43598 15.8987C3.67601 16.6353 2.46281 16.6164 1.72621 15.8564Z" fill="#FFEE00"/>
</svg>
