<svg width="19" height="18" viewBox="0 0 19 18" fill="none" xmlns="http://www.w3.org/2000/svg">
<path d="M1.36329 1.75298C2.11615 0.927574 3.3956 0.868767 4.22101 1.62163L17.4583 13.6956C18.2837 14.4484 18.3426 15.7279 17.5897 16.5533C16.8368 17.3787 15.5574 17.4375 14.732 16.6847L1.49464 4.61071C0.669227 3.85784 0.610419 2.57839 1.36329 1.75298Z" fill="#FFEE00"/>
<path d="M1.82289 16.7379C1.04535 15.9357 1.06535 14.655 1.86756 13.8775L14.7328 1.40785C15.535 0.630306 16.8157 0.650302 17.5932 1.45251C18.3708 2.25472 18.3508 3.53536 17.5485 4.3129L4.68329 16.7825C3.88108 17.5601 2.60044 17.5401 1.82289 16.7379Z" fill="#FFEE00"/>
</svg>
