<svg width="21" height="17" viewBox="0 0 21 17" fill="none" xmlns="http://www.w3.org/2000/svg">
<path d="M0 1.7C0 0.761116 0.761116 0 1.7 0H19.3C20.2389 0 21 0.761116 21 1.7C21 2.63888 20.2389 3.4 19.3 3.4H1.7C0.761116 3.4 0 2.63888 0 1.7Z" fill="#FFEE00"/>
<path d="M0 8.5C0 7.56112 0.761116 6.8 1.7 6.8H19.3C20.2389 6.8 21 7.56112 21 8.5C21 9.43888 20.2389 10.2 19.3 10.2H1.7C0.761116 10.2 0 9.43888 0 8.5Z" fill="#FFEE00"/>
<path d="M0 15.3C0 14.3611 0.762927 13.6 1.70181 13.6C8.32428 13.6 12.6757 13.6 19.2982 13.6C20.2371 13.6 21 14.3611 21 15.3C21 16.2389 20.2389 17 19.3 17H1.7C0.761116 17 0 16.2389 0 15.3Z" fill="#FFEE00"/>
</svg>
