<svg width="19" height="18" viewBox="0 0 19 18" fill="none" xmlns="http://www.w3.org/2000/svg">
<path d="M0 2.24998C0 1.28349 0.783502 0.499985 1.75 0.499985H17.25C18.2165 0.499985 19 1.28349 19 2.24998C19 3.21648 18.2165 3.99998 17.25 3.99998H1.75C0.783502 3.99998 0 3.21648 0 2.24998Z" fill="#FFEE00"/>
<path d="M0 9.24998C0 8.28348 0.783502 7.49998 1.75 7.49998H17.25C18.2165 7.49998 19 8.28348 19 9.24998C19 10.2165 18.2165 11 17.25 11H1.75C0.783502 11 0 10.2165 0 9.24998Z" fill="#FFEE00"/>
<path d="M0 16.25C0 15.2835 0.783502 14.5 1.75 14.5H17.25C18.2165 14.5 19 15.2835 19 16.25C19 17.2165 18.2165 18 17.25 18H1.75C0.783502 18 0 17.2165 0 16.25Z" fill="#FFEE00"/>
</svg>
